<?xml version="1.0" encoding="utf-8"?>
<!DOCTYPE svg PUBLIC "-//W3C//DTD SVG 1.1//EN" "http://www.w3.org/Graphics/SVG/1.1/DTD/svg11.dtd">
<svg version="1.1" id="Layer_1" xmlns="http://www.w3.org/2000/svg" xmlns:xlink="http://www.w3.org/1999/xlink" x="0px" y="0px"
	 width="972px" height="576px" viewBox="0 0 972 576" enable-background="new 0 0 972 576" xml:space="preserve">
<line fill="none" stroke="#FEC200" stroke-miterlimit="10" x1="53.961" y1="152.343" x2="125.979" y2="27.611"/>
<line fill="none" stroke="#FEC200" stroke-miterlimit="10" x1="53.961" y1="27.611" x2="126.034" y2="152.345"/>
<line fill="none" stroke="#FEC200" stroke-miterlimit="10" x1="18" y1="90" x2="162" y2="90"/>
<polygon fill="none" stroke="#FEC200" stroke-miterlimit="10" points="18,90 125.979,27.611 126.034,152.345 "/>
<polygon fill="none" stroke="#FEC200" stroke-miterlimit="10" points="53.961,27.611 53.961,153.25 162,90 "/>
<polygon fill="none" stroke="#FEC200" stroke-miterlimit="10" points="53.961,27.611 18,90 53.961,152.343 126.034,152.345 162,90
	125.979,27.611 "/>
<g>
		<circle fill="none" stroke="#0081CD" stroke-width="0.75" stroke-miterlimit="10" stroke-dasharray="3.0161,3.0161" cx="90" cy="90" r="72"/>
</g>
<line fill="none" stroke="#FEC200" stroke-miterlimit="10" x1="251.961" y1="152.342" x2="323.979" y2="27.61"/>
<line fill="none" stroke="#FEC200" stroke-miterlimit="10" x1="251.961" y1="27.61" x2="324.034" y2="152.345"/>
<line fill="none" stroke="#FEC200" stroke-miterlimit="10" x1="216" y1="90" x2="360" y2="90"/>
<polygon fill="none" stroke="#FEC200" stroke-miterlimit="10" points="216,90 323.979,27.61 324.034,152.345 "/>
<polygon fill="none" stroke="#FEC200" stroke-miterlimit="10" points="251.961,27.61 251.961,153.249 360,90 "/>
<polygon fill="none" stroke="#FEC200" stroke-miterlimit="10" points="251.961,27.61 216,90 251.961,152.342 324.034,152.345
	360,90 323.979,27.61 "/>
<g>
		<circle fill="none" stroke="#0081CD" stroke-width="0.75" stroke-miterlimit="10" stroke-dasharray="3.0161,3.0161" cx="288" cy="90" r="72"/>
</g>
<line fill="none" stroke="#FEC200" stroke-miterlimit="10" x1="449.961" y1="152.342" x2="521.979" y2="27.61"/>
<line fill="none" stroke="#FEC200" stroke-miterlimit="10" x1="449.961" y1="27.61" x2="522.033" y2="152.345"/>
<line fill="none" stroke="#FEC200" stroke-miterlimit="10" x1="414" y1="90" x2="558" y2="90"/>
<polygon fill="none" stroke="#FEC200" stroke-miterlimit="10" points="414,90 521.979,27.61 522.033,152.345 "/>
<polygon fill="none" stroke="#FEC200" stroke-miterlimit="10" points="449.961,27.61 449.961,153.249 558,90 "/>
<polygon fill="none" stroke="#FEC200" stroke-miterlimit="10" points="449.961,27.61 414,90 449.961,152.342 522.033,152.345
	558,90 521.979,27.61 "/>
<g>
		<circle fill="none" stroke="#0081CD" stroke-width="0.75" stroke-miterlimit="10" stroke-dasharray="3.0161,3.0161" cx="486" cy="90" r="72"/>
</g>
<line fill="none" stroke="#FEC200" stroke-miterlimit="10" x1="647.961" y1="152.343" x2="719.979" y2="27.611"/>
<line fill="none" stroke="#FEC200" stroke-miterlimit="10" x1="647.961" y1="27.611" x2="720.034" y2="152.345"/>
<line fill="none" stroke="#FEC200" stroke-miterlimit="10" x1="612" y1="90" x2="756" y2="90"/>
<polygon fill="none" stroke="#FEC200" stroke-miterlimit="10" points="612,90 719.979,27.611 720.034,152.345 "/>
<polygon fill="none" stroke="#FEC200" stroke-miterlimit="10" points="647.961,27.611 647.961,153.25 756,90 "/>
<polygon fill="none" stroke="#FEC200" stroke-miterlimit="10" points="647.961,27.611 612,90 647.961,152.343 720.034,152.345
	756,90 719.979,27.611 "/>
<g>
		<circle fill="none" stroke="#0081CD" stroke-width="0.75" stroke-miterlimit="10" stroke-dasharray="3.0161,3.0161" cx="684" cy="90" r="72"/>
</g>
<line fill="none" stroke="#FEC200" stroke-miterlimit="10" x1="845.961" y1="152.343" x2="917.979" y2="27.611"/>
<line fill="none" stroke="#FEC200" stroke-miterlimit="10" x1="845.961" y1="27.611" x2="918.033" y2="152.345"/>
<line fill="none" stroke="#FEC200" stroke-miterlimit="10" x1="810" y1="90" x2="954" y2="90"/>
<polygon fill="none" stroke="#FEC200" stroke-miterlimit="10" points="810,90 917.979,27.611 918.033,152.345 "/>
<polygon fill="none" stroke="#FEC200" stroke-miterlimit="10" points="845.961,27.611 845.961,153.25 954,90 "/>
<polygon fill="none" stroke="#FEC200" stroke-miterlimit="10" points="845.961,27.611 810,90 845.961,152.343 918.033,152.345
	954,90 917.979,27.611 "/>
<g>
		<circle fill="none" stroke="#0081CD" stroke-width="0.75" stroke-miterlimit="10" stroke-dasharray="3.0161,3.0161" cx="882" cy="90" r="72"/>
</g>
<line fill="none" stroke="#FEC200" stroke-miterlimit="10" x1="53.962" y1="350.344" x2="125.979" y2="225.611"/>
<line fill="none" stroke="#FEC200" stroke-miterlimit="10" x1="53.962" y1="225.611" x2="126.035" y2="350.346"/>
<line fill="none" stroke="#FEC200" stroke-miterlimit="10" x1="18" y1="288" x2="162" y2="288"/>
<polygon fill="none" stroke="#FEC200" stroke-miterlimit="10" points="18,288 125.979,225.611 126.035,350.346 "/>
<polygon fill="none" stroke="#FEC200" stroke-miterlimit="10" points="53.962,225.611 53.962,351.25 162,288 "/>
<polygon fill="none" stroke="#FEC200" stroke-miterlimit="10" points="53.962,225.611 18,288 53.962,350.344 126.035,350.346
	162,288 125.979,225.611 "/>
<g>
		<circle fill="none" stroke="#0081CD" stroke-width="0.75" stroke-miterlimit="10" stroke-dasharray="3.0161,3.0161" cx="90" cy="288" r="72"/>
</g>
<line fill="none" stroke="#FEC200" stroke-miterlimit="10" x1="251.961" y1="350.343" x2="323.979" y2="225.611"/>
<line fill="none" stroke="#FEC200" stroke-miterlimit="10" x1="251.961" y1="225.611" x2="324.034" y2="350.346"/>
<line fill="none" stroke="#FEC200" stroke-miterlimit="10" x1="216" y1="288" x2="360" y2="288"/>
<polygon fill="none" stroke="#FEC200" stroke-miterlimit="10" points="216,288 323.979,225.611 324.034,350.346 "/>
<polygon fill="none" stroke="#FEC200" stroke-miterlimit="10" points="251.961,225.611 251.961,351.25 360,288 "/>
<polygon fill="none" stroke="#FEC200" stroke-miterlimit="10" points="251.961,225.611 216,288 251.961,350.343 324.034,350.346
	360,288 323.979,225.611 "/>
<g>
		<circle fill="none" stroke="#0081CD" stroke-width="0.75" stroke-miterlimit="10" stroke-dasharray="3.0161,3.0161" cx="288" cy="288" r="72"/>
</g>
<line fill="none" stroke="#FEC200" stroke-miterlimit="10" x1="449.961" y1="350.343" x2="521.979" y2="225.611"/>
<line fill="none" stroke="#FEC200" stroke-miterlimit="10" x1="449.961" y1="225.611" x2="522.033" y2="350.346"/>
<line fill="none" stroke="#FEC200" stroke-miterlimit="10" x1="414" y1="288" x2="558" y2="288"/>
<polygon fill="none" stroke="#FEC200" stroke-miterlimit="10" points="414,288 521.979,225.611 522.033,350.346 "/>
<polygon fill="none" stroke="#FEC200" stroke-miterlimit="10" points="449.961,225.611 449.961,351.25 558,288 "/>
<polygon fill="none" stroke="#FEC200" stroke-miterlimit="10" points="449.961,225.611 414,288 449.961,350.343 522.033,350.346
	558,288 521.979,225.611 "/>
<g>
		<circle fill="none" stroke="#0081CD" stroke-width="0.75" stroke-miterlimit="10" stroke-dasharray="3.0161,3.0161" cx="486" cy="288" r="72"/>
</g>
<line fill="none" stroke="#FEC200" stroke-miterlimit="10" x1="647.961" y1="350.344" x2="719.979" y2="225.611"/>
<line fill="none" stroke="#FEC200" stroke-miterlimit="10" x1="647.961" y1="225.611" x2="720.035" y2="350.346"/>
<line fill="none" stroke="#FEC200" stroke-miterlimit="10" x1="612" y1="288" x2="756" y2="288"/>
<polygon fill="none" stroke="#FEC200" stroke-miterlimit="10" points="612,288 719.979,225.611 720.035,350.346 "/>
<polygon fill="none" stroke="#FEC200" stroke-miterlimit="10" points="647.961,225.611 647.961,351.25 756,288 "/>
<polygon fill="none" stroke="#FEC200" stroke-miterlimit="10" points="647.961,225.611 612,288 647.961,350.344 720.035,350.346
	756,288 719.979,225.611 "/>
<g>
		<circle fill="none" stroke="#0081CD" stroke-width="0.75" stroke-miterlimit="10" stroke-dasharray="3.0161,3.0161" cx="684" cy="288" r="72"/>
</g>
<line fill="none" stroke="#FEC200" stroke-miterlimit="10" x1="845.961" y1="350.344" x2="917.979" y2="225.611"/>
<line fill="none" stroke="#FEC200" stroke-miterlimit="10" x1="845.961" y1="225.611" x2="918.033" y2="350.346"/>
<line fill="none" stroke="#FEC200" stroke-miterlimit="10" x1="810" y1="288" x2="954" y2="288"/>
<polygon fill="none" stroke="#FEC200" stroke-miterlimit="10" points="810,288 917.979,225.611 918.033,350.346 "/>
<polygon fill="none" stroke="#FEC200" stroke-miterlimit="10" points="845.961,225.611 845.961,351.25 954,288 "/>
<polygon fill="none" stroke="#FEC200" stroke-miterlimit="10" points="845.961,225.611 810,288 845.961,350.344 918.033,350.346
	954,288 917.979,225.611 "/>
<g>
		<circle fill="none" stroke="#0081CD" stroke-width="0.75" stroke-miterlimit="10" stroke-dasharray="3.0161,3.0161" cx="882" cy="288" r="72"/>
</g>
<line fill="none" stroke="#FEC200" stroke-miterlimit="10" x1="53.962" y1="548.344" x2="125.979" y2="423.611"/>
<line fill="none" stroke="#FEC200" stroke-miterlimit="10" x1="53.962" y1="423.611" x2="126.035" y2="548.346"/>
<line fill="none" stroke="#FEC200" stroke-miterlimit="10" x1="18" y1="486" x2="162" y2="486"/>
<polygon fill="none" stroke="#FEC200" stroke-miterlimit="10" points="18,486 125.979,423.611 126.035,548.346 "/>
<polygon fill="none" stroke="#FEC200" stroke-miterlimit="10" points="53.962,423.611 53.962,549.25 162,486 "/>
<polygon fill="none" stroke="#FEC200" stroke-miterlimit="10" points="53.962,423.611 18,486 53.962,548.344 126.035,548.346
	162,486 125.979,423.611 "/>
<g>
		<circle fill="none" stroke="#0081CD" stroke-width="0.75" stroke-miterlimit="10" stroke-dasharray="3.0161,3.0161" cx="90" cy="486" r="72"/>
</g>
<line fill="none" stroke="#FEC200" stroke-miterlimit="10" x1="251.961" y1="548.343" x2="323.979" y2="423.611"/>
<line fill="none" stroke="#FEC200" stroke-miterlimit="10" x1="251.961" y1="423.611" x2="324.034" y2="548.346"/>
<line fill="none" stroke="#FEC200" stroke-miterlimit="10" x1="216" y1="486" x2="360" y2="486"/>
<polygon fill="none" stroke="#FEC200" stroke-miterlimit="10" points="216,486 323.979,423.611 324.034,548.346 "/>
<polygon fill="none" stroke="#FEC200" stroke-miterlimit="10" points="251.961,423.611 251.961,549.25 360,486 "/>
<polygon fill="none" stroke="#FEC200" stroke-miterlimit="10" points="251.961,423.611 216,486 251.961,548.343 324.034,548.346
	360,486 323.979,423.611 "/>
<g>
		<circle fill="none" stroke="#0081CD" stroke-width="0.75" stroke-miterlimit="10" stroke-dasharray="3.0161,3.0161" cx="288" cy="486" r="72"/>
</g>
<line fill="none" stroke="#FEC200" stroke-miterlimit="10" x1="449.961" y1="548.343" x2="521.979" y2="423.611"/>
<line fill="none" stroke="#FEC200" stroke-miterlimit="10" x1="449.961" y1="423.611" x2="522.033" y2="548.346"/>
<line fill="none" stroke="#FEC200" stroke-miterlimit="10" x1="414" y1="486" x2="558" y2="486"/>
<polygon fill="none" stroke="#FEC200" stroke-miterlimit="10" points="414,486 521.979,423.611 522.033,548.346 "/>
<polygon fill="none" stroke="#FEC200" stroke-miterlimit="10" points="449.961,423.611 449.961,549.25 558,486 "/>
<polygon fill="none" stroke="#FEC200" stroke-miterlimit="10" points="449.961,423.611 414,486 449.961,548.343 522.033,548.346
	558,486 521.979,423.611 "/>
<g>
		<circle fill="none" stroke="#0081CD" stroke-width="0.75" stroke-miterlimit="10" stroke-dasharray="3.0161,3.0161" cx="486" cy="486" r="72"/>
</g>
<line fill="none" stroke="#FEC200" stroke-miterlimit="10" x1="647.961" y1="548.344" x2="719.979" y2="423.611"/>
<line fill="none" stroke="#FEC200" stroke-miterlimit="10" x1="647.961" y1="423.611" x2="720.035" y2="548.346"/>
<line fill="none" stroke="#FEC200" stroke-miterlimit="10" x1="612" y1="486" x2="756" y2="486"/>
<polygon fill="none" stroke="#FEC200" stroke-miterlimit="10" points="612,486 719.979,423.611 720.035,548.346 "/>
<polygon fill="none" stroke="#FEC200" stroke-miterlimit="10" points="647.961,423.611 647.961,549.25 756,486 "/>
<polygon fill="none" stroke="#FEC200" stroke-miterlimit="10" points="647.961,423.611 612,486 647.961,548.344 720.035,548.346
	756,486 719.979,423.611 "/>
<g>
		<circle fill="none" stroke="#0081CD" stroke-width="0.75" stroke-miterlimit="10" stroke-dasharray="3.0161,3.0161" cx="684" cy="486" r="72"/>
</g>
<line fill="none" stroke="#FEC200" stroke-miterlimit="10" x1="845.961" y1="548.344" x2="917.979" y2="423.611"/>
<line fill="none" stroke="#FEC200" stroke-miterlimit="10" x1="845.961" y1="423.611" x2="918.033" y2="548.346"/>
<line fill="none" stroke="#FEC200" stroke-miterlimit="10" x1="810" y1="486" x2="954" y2="486"/>
<polygon fill="none" stroke="#FEC200" stroke-miterlimit="10" points="810,486 917.979,423.611 918.033,548.346 "/>
<polygon fill="none" stroke="#FEC200" stroke-miterlimit="10" points="845.961,423.611 845.961,549.25 954,486 "/>
<polygon fill="none" stroke="#FEC200" stroke-miterlimit="10" points="845.961,423.611 810,486 845.961,548.344 918.033,548.346
	954,486 917.979,423.611 "/>
<g>
		<circle fill="none" stroke="#0081CD" stroke-width="0.75" stroke-miterlimit="10" stroke-dasharray="3.0161,3.0161" cx="882" cy="486" r="72"/>
</g>
<line fill="none" stroke="#000000" stroke-width="3" stroke-miterlimit="10" x1="125.979" y1="27.611" x2="53.961" y2="27.611"/>
<line fill="none" stroke="#000000" stroke-width="3" stroke-miterlimit="10" x1="18" y1="90" x2="162" y2="90"/>
<line fill="none" stroke="#000000" stroke-width="3" stroke-miterlimit="10" x1="53.961" y1="152.343" x2="126.034" y2="152.345"/>
<line fill="none" stroke="#000000" stroke-width="3" stroke-miterlimit="10" x1="53.962" y1="225.611" x2="18" y2="288"/>
<line fill="none" stroke="#000000" stroke-width="3" stroke-miterlimit="10" x1="125.979" y1="225.611" x2="53.962" y2="350.344"/>
<line fill="none" stroke="#000000" stroke-width="3" stroke-miterlimit="10" x1="162" y1="288" x2="126.035" y2="350.346"/>
<line fill="none" stroke="#000000" stroke-width="3" stroke-miterlimit="10" x1="125.979" y1="423.611" x2="162" y2="486"/>
<line fill="none" stroke="#000000" stroke-width="3" stroke-miterlimit="10" x1="53.962" y1="423.611" x2="126.035" y2="548.346"/>
<line fill="none" stroke="#000000" stroke-width="3" stroke-miterlimit="10" x1="18" y1="486" x2="53.962" y2="548.344"/>
<line fill="none" stroke="#000000" stroke-width="3" stroke-miterlimit="10" x1="251.961" y1="27.61" x2="323.979" y2="27.61"/>
<line fill="none" stroke="#000000" stroke-width="3" stroke-miterlimit="10" x1="216" y1="90" x2="324.034" y2="152.345"/>
<line fill="none" stroke="#000000" stroke-width="3" stroke-miterlimit="10" x1="251.961" y1="152.342" x2="360" y2="90"/>
<line fill="none" stroke="#000000" stroke-width="3" stroke-miterlimit="10" x1="323.979" y1="225.611" x2="360" y2="288"/>
<line fill="none" stroke="#000000" stroke-width="3" stroke-miterlimit="10" x1="251.961" y1="225.611" x2="251.961" y2="350.343"/>
<line fill="none" stroke="#000000" stroke-width="3" stroke-miterlimit="10" x1="324.034" y1="350.346" x2="216" y2="288"/>
<line fill="none" stroke="#000000" stroke-width="3" stroke-miterlimit="10" x1="360" y1="486" x2="324.034" y2="548.346"/>
<line fill="none" stroke="#000000" stroke-width="3" stroke-miterlimit="10" x1="251.961" y1="548.343" x2="251.961" y2="423.611"/>
<line fill="none" stroke="#000000" stroke-width="3" stroke-miterlimit="10" x1="216" y1="486" x2="323.979" y2="423.611"/>
<line fill="none" stroke="#000000" stroke-width="3" stroke-miterlimit="10" x1="449.961" y1="152.342" x2="522.033" y2="152.345"/>
<line fill="none" stroke="#000000" stroke-width="3" stroke-miterlimit="10" x1="414" y1="90.43" x2="521.979" y2="27.61"/>
<line fill="none" stroke="#000000" stroke-width="3" stroke-miterlimit="10" x1="449.961" y1="27.61" x2="558" y2="90"/>
<line fill="none" stroke="#000000" stroke-width="3" stroke-miterlimit="10" x1="414" y1="288" x2="449.961" y2="350.343"/>
<line fill="none" stroke="#000000" stroke-width="3" stroke-miterlimit="10" x1="449.961" y1="225.611" x2="558" y2="288"/>
<line fill="none" stroke="#000000" stroke-width="3" stroke-miterlimit="10" x1="521.979" y1="225.611" x2="522.033" y2="350.346"/>
<line fill="none" stroke="#000000" stroke-width="3" stroke-miterlimit="10" x1="414" y1="486" x2="449.961" y2="423.611"/>
<line fill="none" stroke="#000000" stroke-width="3" stroke-miterlimit="10" x1="521.979" y1="423.611" x2="522.034" y2="548.346"/>
<line fill="none" stroke="#000000" stroke-width="3" stroke-miterlimit="10" x1="449.961" y1="548.343" x2="558" y2="486"/>
<line fill="none" stroke="#000000" stroke-width="3" stroke-miterlimit="10" x1="612" y1="90" x2="756" y2="90"/>
<line fill="none" stroke="#000000" stroke-width="3" stroke-miterlimit="10" x1="647.961" y1="27.611" x2="647.961" y2="152.343"/>
<line fill="none" stroke="#000000" stroke-width="3" stroke-miterlimit="10" x1="719.979" y1="27.611" x2="720.034" y2="152.345"/>
<line fill="none" stroke="#000000" stroke-width="3" stroke-miterlimit="10" x1="720.035" y1="350.346" x2="647.962" y2="225.611"/>
<line fill="none" stroke="#000000" stroke-width="3" stroke-miterlimit="10" x1="612" y1="288" x2="719.979" y2="225.611"/>
<line fill="none" stroke="#000000" stroke-width="3" stroke-miterlimit="10" x1="647.962" y1="350.344" x2="756" y2="288"/>
<line fill="none" stroke="#000000" stroke-width="3" stroke-miterlimit="10" x1="719.979" y1="423.611" x2="647.962" y2="548.344"/>
<line fill="none" stroke="#000000" stroke-width="3" stroke-miterlimit="10" x1="612" y1="486" x2="720.035" y2="548.346"/>
<line fill="none" stroke="#000000" stroke-width="3" stroke-miterlimit="10" x1="756" y1="486" x2="647.962" y2="423.611"/>
<line fill="none" stroke="#000000" stroke-width="3" stroke-miterlimit="10" x1="810" y1="90" x2="954" y2="90"/>
<line fill="none" stroke="#000000" stroke-width="3" stroke-miterlimit="10" x1="918.034" y1="152.345" x2="845.961" y2="27.611"/>
<line fill="none" stroke="#000000" stroke-width="3" stroke-miterlimit="10" x1="917.979" y1="27.611" x2="845.961" y2="152.343"/>
<line fill="none" stroke="#000000" stroke-width="3" stroke-miterlimit="10" x1="845.962" y1="225.611" x2="917.979" y2="225.611"/>
<line fill="none" stroke="#000000" stroke-width="3" stroke-miterlimit="10" x1="954" y1="288" x2="918.035" y2="350.346"/>
<line fill="none" stroke="#000000" stroke-width="3" stroke-miterlimit="10" x1="845.961" y1="350.344" x2="810" y2="288"/>
<line fill="none" stroke="#000000" stroke-width="3" stroke-miterlimit="10" x1="845.962" y1="548.344" x2="918.035" y2="548.346"/>
<line fill="none" stroke="#000000" stroke-width="3" stroke-miterlimit="10" x1="954" y1="486" x2="917.979" y2="423.611"/>
<line fill="none" stroke="#000000" stroke-width="3" stroke-miterlimit="10" x1="845.962" y1="423.611" x2="810" y2="486"/>
<circle fill="#BC1E47" stroke="#000000" stroke-miterlimit="10" cx="162" cy="90" r="3"/>
<circle fill="#BC1E47" stroke="#000000" stroke-miterlimit="10" cx="126.034" cy="152.345" r="3"/>
<circle fill="#BC1E47" stroke="#000000" stroke-miterlimit="10" cx="53.961" cy="152.343" r="3"/>
<circle fill="#BC1E47" stroke="#000000" stroke-miterlimit="10" cx="18" cy="90" r="3"/>
<circle fill="#BC1E47" stroke="#000000" stroke-miterlimit="10" cx="53.961" cy="27.611" r="3"/>
<circle fill="#BC1E47" stroke="#000000" stroke-miterlimit="10" cx="125.979" cy="27.611" r="3"/>
<circle fill="#BC1E47" stroke="#000000" stroke-miterlimit="10" cx="360" cy="90" r="3"/>
<circle fill="#BC1E47" stroke="#000000" stroke-miterlimit="10" cx="324.034" cy="152.345" r="3"/>
<circle fill="#BC1E47" stroke="#000000" stroke-miterlimit="10" cx="251.961" cy="152.342" r="3"/>
<circle fill="#BC1E47" stroke="#000000" stroke-miterlimit="10" cx="216" cy="90" r="3"/>
<circle fill="#BC1E47" stroke="#000000" stroke-miterlimit="10" cx="251.961" cy="27.61" r="3"/>
<circle fill="#BC1E47" stroke="#000000" stroke-miterlimit="10" cx="323.978" cy="27.61" r="3"/>
<circle fill="#BC1E47" stroke="#000000" stroke-miterlimit="10" cx="558" cy="90" r="3"/>
<circle fill="#BC1E47" stroke="#000000" stroke-miterlimit="10" cx="522.033" cy="152.345" r="3"/>
<circle fill="#BC1E47" stroke="#000000" stroke-miterlimit="10" cx="449.961" cy="152.342" r="3"/>
<circle fill="#BC1E47" stroke="#000000" stroke-miterlimit="10" cx="414" cy="90" r="3"/>
<circle fill="#BC1E47" stroke="#000000" stroke-miterlimit="10" cx="449.961" cy="27.61" r="3"/>
<circle fill="#BC1E47" stroke="#000000" stroke-miterlimit="10" cx="521.979" cy="27.61" r="3"/>
<circle fill="#BC1E47" stroke="#000000" stroke-miterlimit="10" cx="756" cy="90" r="3"/>
<circle fill="#BC1E47" stroke="#000000" stroke-miterlimit="10" cx="720.034" cy="152.345" r="3"/>
<circle fill="#BC1E47" stroke="#000000" stroke-miterlimit="10" cx="647.961" cy="152.343" r="3"/>
<circle fill="#BC1E47" stroke="#000000" stroke-miterlimit="10" cx="612" cy="90" r="3"/>
<circle fill="#BC1E47" stroke="#000000" stroke-miterlimit="10" cx="647.961" cy="27.611" r="3"/>
<circle fill="#BC1E47" stroke="#000000" stroke-miterlimit="10" cx="719.979" cy="27.611" r="3"/>
<circle fill="#BC1E47" stroke="#000000" stroke-miterlimit="10" cx="954" cy="90" r="3"/>
<circle fill="#BC1E47" stroke="#000000" stroke-miterlimit="10" cx="918.033" cy="152.345" r="3"/>
<circle fill="#BC1E47" stroke="#000000" stroke-miterlimit="10" cx="845.961" cy="152.343" r="3"/>
<circle fill="#BC1E47" stroke="#000000" stroke-miterlimit="10" cx="810" cy="90" r="3"/>
<circle fill="#BC1E47" stroke="#000000" stroke-miterlimit="10" cx="845.961" cy="27.611" r="3"/>
<circle fill="#BC1E47" stroke="#000000" stroke-miterlimit="10" cx="917.979" cy="27.611" r="3"/>
<circle fill="#BC1E47" stroke="#000000" stroke-miterlimit="10" cx="162" cy="288" r="3"/>
<circle fill="#BC1E47" stroke="#000000" stroke-miterlimit="10" cx="126.035" cy="350.346" r="3"/>
<circle fill="#BC1E47" stroke="#000000" stroke-miterlimit="10" cx="53.962" cy="350.344" r="3"/>
<circle fill="#BC1E47" stroke="#000000" stroke-miterlimit="10" cx="18" cy="288" r="3"/>
<circle fill="#BC1E47" stroke="#000000" stroke-miterlimit="10" cx="53.962" cy="225.611" r="3"/>
<circle fill="#BC1E47" stroke="#000000" stroke-miterlimit="10" cx="125.979" cy="225.611" r="3"/>
<circle fill="#BC1E47" stroke="#000000" stroke-miterlimit="10" cx="360" cy="288" r="3"/>
<circle fill="#BC1E47" stroke="#000000" stroke-miterlimit="10" cx="324.034" cy="350.346" r="3"/>
<circle fill="#BC1E47" stroke="#000000" stroke-miterlimit="10" cx="251.961" cy="350.343" r="3"/>
<circle fill="#BC1E47" stroke="#000000" stroke-miterlimit="10" cx="216" cy="288" r="3"/>
<circle fill="#BC1E47" stroke="#000000" stroke-miterlimit="10" cx="251.961" cy="225.611" r="3"/>
<circle fill="#BC1E47" stroke="#000000" stroke-miterlimit="10" cx="323.979" cy="225.611" r="3"/>
<circle fill="#BC1E47" stroke="#000000" stroke-miterlimit="10" cx="558" cy="288" r="3"/>
<circle fill="#BC1E47" stroke="#000000" stroke-miterlimit="10" cx="522.033" cy="350.346" r="3"/>
<circle fill="#BC1E47" stroke="#000000" stroke-miterlimit="10" cx="449.961" cy="350.343" r="3"/>
<circle fill="#BC1E47" stroke="#000000" stroke-miterlimit="10" cx="414" cy="288" r="3"/>
<circle fill="#BC1E47" stroke="#000000" stroke-miterlimit="10" cx="449.961" cy="225.611" r="3"/>
<circle fill="#BC1E47" stroke="#000000" stroke-miterlimit="10" cx="521.979" cy="225.611" r="3"/>
<circle fill="#BC1E47" stroke="#000000" stroke-miterlimit="10" cx="756" cy="288" r="3"/>
<circle fill="#BC1E47" stroke="#000000" stroke-miterlimit="10" cx="720.035" cy="350.346" r="3"/>
<circle fill="#BC1E47" stroke="#000000" stroke-miterlimit="10" cx="647.961" cy="350.344" r="3"/>
<circle fill="#BC1E47" stroke="#000000" stroke-miterlimit="10" cx="612" cy="288" r="3"/>
<circle fill="#BC1E47" stroke="#000000" stroke-miterlimit="10" cx="647.961" cy="225.611" r="3"/>
<circle fill="#BC1E47" stroke="#000000" stroke-miterlimit="10" cx="719.979" cy="225.611" r="3"/>
<circle fill="#BC1E47" stroke="#000000" stroke-miterlimit="10" cx="954" cy="288" r="3"/>
<circle fill="#BC1E47" stroke="#000000" stroke-miterlimit="10" cx="918.033" cy="350.346" r="3"/>
<circle fill="#BC1E47" stroke="#000000" stroke-miterlimit="10" cx="845.961" cy="350.344" r="3"/>
<circle fill="#BC1E47" stroke="#000000" stroke-miterlimit="10" cx="810" cy="288" r="3"/>
<circle fill="#BC1E47" stroke="#000000" stroke-miterlimit="10" cx="845.961" cy="225.611" r="3"/>
<circle fill="#BC1E47" stroke="#000000" stroke-miterlimit="10" cx="917.979" cy="225.611" r="3"/>
<circle fill="#BC1E47" stroke="#000000" stroke-miterlimit="10" cx="162" cy="486" r="3"/>
<circle fill="#BC1E47" stroke="#000000" stroke-miterlimit="10" cx="126.035" cy="548.346" r="3"/>
<circle fill="#BC1E47" stroke="#000000" stroke-miterlimit="10" cx="53.962" cy="548.344" r="3"/>
<circle fill="#BC1E47" stroke="#000000" stroke-miterlimit="10" cx="18" cy="486" r="3"/>
<circle fill="#BC1E47" stroke="#000000" stroke-miterlimit="10" cx="53.962" cy="423.611" r="3"/>
<circle fill="#BC1E47" stroke="#000000" stroke-miterlimit="10" cx="125.979" cy="423.611" r="3"/>
<circle fill="#BC1E47" stroke="#000000" stroke-miterlimit="10" cx="360" cy="486" r="3"/>
<circle fill="#BC1E47" stroke="#000000" stroke-miterlimit="10" cx="324.034" cy="548.346" r="3"/>
<circle fill="#BC1E47" stroke="#000000" stroke-miterlimit="10" cx="251.961" cy="548.343" r="3"/>
<circle fill="#BC1E47" stroke="#000000" stroke-miterlimit="10" cx="216" cy="486" r="3"/>
<circle fill="#BC1E47" stroke="#000000" stroke-miterlimit="10" cx="251.961" cy="423.611" r="3"/>
<circle fill="#BC1E47" stroke="#000000" stroke-miterlimit="10" cx="323.979" cy="423.611" r="3"/>
<circle fill="#BC1E47" stroke="#000000" stroke-miterlimit="10" cx="558" cy="486" r="3"/>
<circle fill="#BC1E47" stroke="#000000" stroke-miterlimit="10" cx="522.033" cy="548.346" r="3"/>
<circle fill="#BC1E47" stroke="#000000" stroke-miterlimit="10" cx="449.961" cy="548.343" r="3"/>
<circle fill="#BC1E47" stroke="#000000" stroke-miterlimit="10" cx="414" cy="486" r="3"/>
<circle fill="#BC1E47" stroke="#000000" stroke-miterlimit="10" cx="449.961" cy="423.611" r="3"/>
<circle fill="#BC1E47" stroke="#000000" stroke-miterlimit="10" cx="521.979" cy="423.611" r="3"/>
<circle fill="#BC1E47" stroke="#000000" stroke-miterlimit="10" cx="756" cy="486" r="3"/>
<circle fill="#BC1E47" stroke="#000000" stroke-miterlimit="10" cx="720.035" cy="548.346" r="3"/>
<circle fill="#BC1E47" stroke="#000000" stroke-miterlimit="10" cx="647.961" cy="548.344" r="3"/>
<circle fill="#BC1E47" stroke="#000000" stroke-miterlimit="10" cx="612" cy="486" r="3"/>
<circle fill="#BC1E47" stroke="#000000" stroke-miterlimit="10" cx="647.961" cy="423.611" r="3"/>
<circle fill="#BC1E47" stroke="#000000" stroke-miterlimit="10" cx="719.979" cy="423.611" r="3"/>
<circle fill="#BC1E47" stroke="#000000" stroke-miterlimit="10" cx="954" cy="486" r="3"/>
<circle fill="#BC1E47" stroke="#000000" stroke-miterlimit="10" cx="918.033" cy="548.346" r="3"/>
<circle fill="#BC1E47" stroke="#000000" stroke-miterlimit="10" cx="845.961" cy="548.344" r="3"/>
<circle fill="#BC1E47" stroke="#000000" stroke-miterlimit="10" cx="810" cy="486" r="3"/>
<circle fill="#BC1E47" stroke="#000000" stroke-miterlimit="10" cx="845.961" cy="423.611" r="3"/>
<circle fill="#BC1E47" stroke="#000000" stroke-miterlimit="10" cx="917.979" cy="423.611" r="3"/>
</svg>
